<!DOCTYPE svg PUBLIC "-//W3C//DTD SVG 20010904//EN" "http://www.w3.org/TR/2001/REC-SVG-20010904/DTD/svg10.dtd">
<svg version="1.0" xmlns="http://www.w3.org/2000/svg" width="554px" height="513px" viewBox="0 0 5540 5130" preserveAspectRatio="xMidYMid meet">
<g id="layer101" fill="#004ba0" stroke="none">
<path d="M2644 5107 c-20 -17 -34 -42 -43 -79 -26 -101 -88 -273 -124 -343 -95 -186 -269 -330 -573 -476 -68 -32 -126 -59 -129 -59 -3 0 -40 -16 -83 -35 -154 -69 -488 -197 -513 -197 -33 1 -192 60 -334 125 -175 80 -285 156 -333 231 -24 36 -27 50 -26 121 2 103 23 166 125 368 54 108 79 168 79 192 0 46 -24 103 -47 112 -10 4 -21 11 -25 17 -13 19 -122 20 -162 1 -49 -24 -72 -55 -149 -210 -81 -162 -120 -272 -141 -399 -16 -91 -16 -104 -1 -178 20 -98 43 -149 98 -224 90 -123 295 -259 548 -364 68 -29 128 -56 133 -60 4 -5 -3 -44 -18 -87 -14 -43 -31 -103 -36 -133 -14 -68 -33 -251 -32 -305 1 -105 22 -300 42 -395 13 -58 24 -118 24 -135 l1 -30 -100 3 c-163 5 -196 5 -290 -2 -213 -17 -363 -67 -447 -149 -72 -70 -82 -101 -86 -262 -4 -144 4 -203 39 -303 11 -29 19 -64 19 -77 0 -29 76 -194 155 -337 52 -92 81 -143 187 -323 41 -70 80 -95 149 -95 62 0 108 26 142 81 37 57 22 101 -116 350 -162 292 -218 404 -256 515 -70 206 -56 236 124 267 111 18 526 17 550 -3 7 -6 26 -63 41 -127 l27 -115 -55 -48 c-94 -83 -197 -250 -213 -346 -4 -22 -13 -61 -21 -88 -19 -69 -18 -140 7 -249 25 -114 58 -190 123 -285 57 -85 112 -136 216 -204 126 -81 175 -93 380 -93 165 0 179 2 248 27 205 75 370 238 443 441 16 42 32 103 35 135 17 150 23 50 24 -369 l0 -455 -31 -30 c-56 -53 -74 -99 -74 -194 0 -104 22 -150 93 -195 l47 -30 1545 -3 c1116 -2 1556 0 1584 8 49 15 101 67 116 117 7 23 11 78 9 130 -4 84 -6 93 -41 146 l-38 56 -2 1358 c-3 1345 -3 1358 -23 1393 -12 19 -36 43 -55 55 -33 19 -54 20 -387 23 -286 2 -353 5 -353 16 0 8 91 353 202 767 225 843 224 835 173 934 -26 50 -39 63 -85 88 -52 27 -61 28 -156 25 -92 -3 -105 -6 -149 -33 -33 -21 -56 -45 -72 -75 -12 -25 -123 -421 -245 -880 l-223 -835 -228 -3 -227 -2 -10 22 c-6 13 -107 388 -225 833 -135 508 -226 830 -243 864 -23 45 -36 59 -82 82 -52 26 -66 28 -225 34 l-171 7 -30 -25z m265 -1197 c82 -311 153 -577 156 -592 l7 -27 -360 -3 c-346 -3 -362 -4 -388 -24 -15 -11 -37 -33 -48 -48 -20 -27 -21 -39 -21 -396 0 -356 1 -370 20 -389 13 -14 56 -28 128 -43 153 -32 141 -56 145 307 l3 295 1304 0 1305 0 0 -1245 0 -1245 -1305 0 -1304 0 -3 470 c-3 456 -4 470 -23 490 -14 14 -55 27 -129 42 l-109 21 -18 -22 c-11 -13 -19 -35 -19 -50 -1 -47 -17 0 -23 65 -6 74 -62 216 -115 294 -51 74 -125 147 -200 195 -34 22 -62 43 -62 46 0 8 89 -5 170 -24 36 -9 101 -23 145 -31 44 -9 112 -23 150 -31 39 -9 93 -20 120 -25 28 -4 79 -15 115 -23 36 -8 99 -23 141 -32 47 -11 100 -16 137 -13 l61 4 3 -505 3 -506 23 -40 c28 -49 72 -81 132 -94 62 -14 1638 -14 1700 0 60 13 104 45 132 94 l23 40 0 751 0 750 -24 36 c-31 45 -75 74 -131 87 -62 14 -1638 14 -1700 0 -60 -13 -104 -45 -132 -94 -18 -32 -23 -60 -26 -137 -3 -54 -5 -98 -6 -98 0 0 -55 12 -121 26 -66 15 -142 31 -170 36 -27 5 -86 18 -130 28 -44 10 -111 23 -150 30 -38 6 -117 22 -175 35 -225 52 -467 103 -600 125 -30 6 -73 14 -95 19 -22 5 -64 14 -94 20 -68 14 -78 22 -86 74 -4 23 -17 85 -30 137 -13 52 -29 136 -37 185 -17 118 -17 393 0 465 20 78 70 243 79 256 13 18 42 31 261 114 620 235 963 442 1130 680 61 87 74 102 83 93 4 -5 75 -262 158 -573z m1811 -2180 l0 -580 -820 0 -820 0 0 580 0 580 820 0 820 0 0 -580z m-3305 410 c7 -11 -30 -19 -45 -10 -19 12 -3 29 20 23 11 -3 22 -9 25 -13z m185 -341 c41 -11 93 -31 115 -44 58 -34 132 -117 163 -183 25 -52 27 -68 27 -177 0 -109 -2 -125 -27 -177 -99 -212 -362 -299 -573 -191 -69 36 -130 98 -171 175 -38 72 -38 74 -39 189 0 113 1 116 38 191 57 117 140 182 277 219 85 23 101 23 190 -2z"/>
</g>
<g id="layer102" fill="#1976d2" stroke="none">
<path d="M3045 2489 c-55 -13 -100 -46 -127 -94 -31 -54 -39 -239 -14 -315 15 -44 15 -55 1 -115 -13 -56 -15 -147 -13 -583 l3 -517 23 -40 c28 -49 72 -81 132 -94 62 -14 1638 -14 1700 0 60 13 104 45 132 94 l23 40 0 751 0 750 -24 36 c-31 45 -75 74 -131 87 -58 13 -1648 13 -1705 0z m1675 -759 l0 -580 -820 0 -820 0 0 580 0 580 820 0 820 0 0 -580z"/>
<path d="M3780 2118 c-51 -27 -51 -139 0 -165 19 -10 82 -13 252 -11 265 3 263 3 263 93 0 90 2 90 -263 93 -169 2 -233 -1 -252 -10z"/>
<path d="M3307 2042 c-26 -26 -47 -56 -47 -66 0 -9 50 -69 112 -132 l111 -114 -111 -113 c-62 -62 -112 -121 -112 -131 0 -25 95 -116 121 -116 33 0 359 327 359 360 0 35 -326 360 -361 360 -16 0 -41 -16 -72 -48z"/>
</g>


</svg>